<svg xmlns="http://www.w3.org/2000/svg" width="1280" height="720" viewBox="0 0 1280 720">
  <rect width="1280" height="720" fill="#f3fff8"/>
  <text x="80" y="100" font-family="Segoe UI, Arial, sans-serif" font-size="50" font-weight="700" fill="#0f5132">From User Action to Stored Data</text>

  <rect x="80" y="190" width="250" height="130" rx="14" fill="#ffffff" stroke="#146c43" stroke-width="3"/>
  <text x="110" y="265" font-family="Segoe UI, Arial, sans-serif" font-size="30" fill="#0f5132">Browser UI</text>

  <rect x="390" y="190" width="250" height="130" rx="14" fill="#ffffff" stroke="#146c43" stroke-width="3"/>
  <text x="430" y="265" font-family="Segoe UI, Arial, sans-serif" font-size="30" fill="#0f5132">API Route</text>

  <rect x="700" y="190" width="250" height="130" rx="14" fill="#ffffff" stroke="#146c43" stroke-width="3"/>
  <text x="750" y="265" font-family="Segoe UI, Arial, sans-serif" font-size="30" fill="#0f5132">SQL Query</text>

  <rect x="1010" y="190" width="190" height="130" rx="14" fill="#ffffff" stroke="#146c43" stroke-width="3"/>
  <text x="1040" y="265" font-family="Segoe UI, Arial, sans-serif" font-size="30" fill="#0f5132">Table</text>

  <line x1="330" y1="255" x2="390" y2="255" stroke="#146c43" stroke-width="5"/>
  <polygon points="390,255 375,245 375,265" fill="#146c43"/>
  <line x1="640" y1="255" x2="700" y2="255" stroke="#146c43" stroke-width="5"/>
  <polygon points="700,255 685,245 685,265" fill="#146c43"/>
  <line x1="950" y1="255" x2="1010" y2="255" stroke="#146c43" stroke-width="5"/>
  <polygon points="1010,255 995,245 995,265" fill="#146c43"/>

  <rect x="80" y="390" width="1120" height="250" rx="18" fill="#ffffff" stroke="#1d7f4e" stroke-width="3"/>
  <text x="120" y="455" font-family="Segoe UI, Arial, sans-serif" font-size="34" font-weight="700" fill="#0f5132">Table Model: tasks</text>
  <text x="120" y="505" font-family="Consolas, monospace" font-size="28" fill="#165c3a">id | title            | status      | due_date</text>
  <text x="120" y="548" font-family="Consolas, monospace" font-size="28" fill="#165c3a">1  | Finish wireframe | in_progress | 2026-03-30</text>
  <text x="120" y="591" font-family="Consolas, monospace" font-size="28" fill="#165c3a">2  | Write tests      | todo        | 2026-04-01</text>
</svg>