<?xml version="1.0" standalone="yes"?>
<svg xmlns="http://www.w3.org/2000/svg" width="430" height="340">
<path style="fill:#fdfdfd; stroke:none;" d="M0 0L0 334L12 334L12 337L20 337L20 329L28 329L28 334L44 334L44 337L52 337L52 334L84 334L84 329L92 329L92 321L95 321L95 313L92 313L92 305L84 305L84 289L76 289L76 281L68 281L68 273L63 273L63 265L60 265L60 257L52 257L52 249L44 249L44 241L36 241L36 233L28 233L28 217L20 217L20 209L15 209L15 201L12 201L12 185L7 185L7 177L4 177L4 169L9 169L9 161L12 161L12 153L20 153L20 145L28 145L28 137L36 137L36 129L44 129L44 121L52 121L52 105L57 105L57 97L60 97L60 89L57 89L57 81L52 81L52 57L44 57L44 33L52 33L52 39L54 39L52 17L60 17L60 9L68 9L68 6L92 6L92 9L100 9L100 17L116 17L116 22L124 22L124 25L140 25L140 33L292 33L292 25L300 25L300 17L323 17C325.811 12.4549 333.786 9.81082 339 9C341.402 15.0614 350.517 13 356 13L356 17L364 17L369.411 34.9729L368.375 52.9729L372 73L364 73L364 113L372 113L372 129L380 129L380 137L384 137C385.198 143.734 389.807 144.951 396 145L396 153L404 153L404 169L412 169L412 185L409 185L409 193L412 193L412 201L409 201L409 209L404 209L404 217L399 217L399 225L388 225L388 233L380 233L380 241L375 241L375 249L372 249L372 257L364 257L364 273L356 273L356 281L348 281L348 289L340 289L340 297L332 297L332 321L340 321L340 329L348 329L348 332L388 332L388 329L420 329L420 337L428 337L430 301L430 233L430 0L0 0z"/>
<path style="fill:#fcfcfc; stroke:none;" d="M68 6L68 9L60 9L60 17L52 17L54 39L52 39L52 33L44 33L44 57L52 57L52 81L57 81L57 89L60 89L60 97L57 97L57 105L52 105L52 121L44 121L44 129L36 129L36 137L28 137L28 145L20 145L20 153L12 153L12 161L9 161L9 169L4 169L4 177L7 177L7 185L12 185L12 201L15 201L15 209L20 209L20 217L28 217L28 233L36 233L36 241L44 241L44 249L52 249L52 257L60 257L60 265L63 265L63 273L68 273L68 281L76 281L76 289L84 289L84 305L92 305L92 313L95 313L95 321L92 321L92 329L84 329L84 334L52 334L52 337L44 337L44 334L28 334L28 329L20 329L20 337L12 337L12 334L0 334L0 340L430 340L430 334L428 337L420 337L420 329L388 329L388 332L348 332L348 329L340 329L340 321L332 321L332 297L340 297L340 289L348 289L348 281L356 281L356 273L364 273L364 257L372 257L372 249L375 249L375 241L380 241L380 233L388 233L388 225L399 225L399 217L404 217L404 209L409 209L409 201L412 201L412 193L409 193L409 185L412 185L412 169L404 169L404 153L396 153L396 145C389.944 144.877 385.794 143.134 384 137L380 137L380 129L372 129L372 113L364 113L364 73L372 73L368.705 52.9729L369.484 33.9897L364 17L356 17L356 13C350.096 13 342.503 14.6456 339 9C333.884 9.45059 324.973 12.0045 323 17L300 17L300 25L292 25L292 33L140 33L140 25L124 25L124 22L116 22L116 17L100 17L100 9L92 9L92 6L68 6z"/>
<path style="fill:#b1bac3; stroke:none;" d="M81 20L81 21L87 21L81 20z"/>
<path style="fill:#adb7c0; stroke:none;" d="M334 20L334 21L342 21L334 20z"/>
<path style="fill:#838c95; stroke:none;" d="M78.6667 21.3333L79.3333 21.6667L78.6667 21.3333z"/>
<path style="fill:#212e3e; stroke:none;" d="M310 86C300.347 76.3469 289.237 60.2683 277 54.1497C268.734 50.0164 253.14 53 244 53L177 53C168.232 53 155.244 50.5916 147 53.7173C133.335 58.8986 124.629 77.3749 113 86C110.004 76.7326 101.63 66.6302 100.818 57C100.027 47.6201 108.649 41.1575 102.702 31.0035C95.0166 17.88 74.9986 17.8222 67.4249 31.0033C62.4107 39.7299 65.3147 51.4251 73.0306 57.5385C76.1479 60.0082 80.5334 60.1622 83.428 62.7061C89.5452 68.0823 93.1701 81.5897 96.4324 89C97.6054 91.6645 99.8804 94.9708 99.5833 98C99.0522 103.415 92.7208 106.213 92.1012 112C88.3756 146.796 92 183.984 92 219C92 232.688 87.9378 253.961 92.6579 266.8C96.6923 277.774 113.537 289.312 121.814 297.432C125.248 300.8 128.645 305.606 133.305 307.342C140.715 310.102 152.141 308 160 308L220 308L271 308C277.243 308 286.491 309.703 292 306.283C302.069 300.032 310.636 288.364 319 280C322.788 276.212 328.333 272.143 330.283 267C335.032 254.474 331 233.397 331 220L331 146C331 134.808 332.786 122.024 331.155 111C330.382 105.77 323.941 103.247 323.735 98C323.615 94.939 325.92 91.6949 327.127 89C330.614 81.2185 333.954 68.3603 340.45 62.6474C347.35 56.5803 355.863 57.1102 357.656 46C360.839 26.2857 336.56 10.5 322.638 28.1259C314.44 38.5049 323.335 46.7474 322.784 57C322.281 66.375 313.286 77.1541 310 86z"/>
<path style="fill:#8b929a; stroke:none;" d="M89 21L89 22L92 22L89 21z"/>
<path style="fill:#737c83; stroke:none;" d="M319.333 33.6667L319.667 34.3333L319.333 33.6667z"/>
<path style="fill:#677077; stroke:none;" d="M357.333 33.6667L357.667 34.3333L357.333 33.6667z"/>
<path style="fill:#aab3bc; stroke:none;" d="M358.333 35.6667L358.667 36.3333L358.333 35.6667z"/>
<path style="fill:#5d666d; stroke:none;" d="M318 36L318 44L319 44L318 36z"/>
<path style="fill:#a3acb3; stroke:none;" d="M105 37L105 43L106 43L105 37z"/>
<path style="fill:#505a66; stroke:none;" d="M358 37L358 44L359 44L358 37z"/>
<path style="fill:#b4bdc6; stroke:none;" d="M64 38L64 43L65 43L64 38z"/>
<path style="fill:#99a2ab; stroke:none;" d="M358 44L358 47L359 47L358 44z"/>
<path style="fill:#a7aeb4; stroke:none;" d="M319.333 47.6667L319.667 48.3333L319.333 47.6667z"/>
<path style="fill:#6c757a; stroke:none;" d="M357.333 47.6667L357.667 48.3333L357.333 47.6667z"/>
<path style="fill:#555e67; stroke:none;" d="M147 52L147 53L276 53C264.94 48.8668 247.804 52 236 52L147 52z"/>
<path style="fill:#848e9a; stroke:none;" d="M99.3333 55.6667L99.6667 56.3333L99.3333 55.6667z"/>
<path style="fill:#858a90; stroke:none;" d="M346.667 59.3333L347.333 59.6667L346.667 59.3333z"/>
<path style="fill:#adb4ba; stroke:none;" d="M344.667 60.3333L345.333 60.6667L344.667 60.3333z"/>
<path style="fill:#b2bbc2; stroke:none;" d="M81 61L81 62L84 62L81 61z"/>
<path style="fill:#bac3ca; stroke:none;" d="M340 61L340 62L344 62L340 61z"/>
<path style="fill:#717882; stroke:none;" d="M110.333 79.6667L110.667 80.3333L110.333 79.6667z"/>
<path style="fill:#8891a2; stroke:none;" d="M113.667 85.3333L114.333 85.6667L113.667 85.3333z"/>
<path style="fill:#5a6169; stroke:none;" d="M91 109L91 266L92 266L92 157C92 143.01 95.89 122.085 91 109z"/>
<path style="fill:#dfe6ec; stroke:none;" d="M332 109L332 265L333 265L333 157C333 143.01 336.89 122.085 332 109z"/>
<path style="fill:#454e57; stroke:none;" d="M331 111L331 267L332 267L332 159C332 145.01 335.89 124.085 331 111z"/>
<path style="fill:#bfc3c6; stroke:none;" d="M68 130L68 131L78 131L68 130z"/>
<path style="fill:#babdc2; stroke:none;" d="M345 130L345 131L355 131L345 130z"/>
<path style="fill:#222f3f; stroke:none;" d="M77 231L77 131C64.453 131.035 57.7727 141.435 49.8003 150.027C43.5795 156.732 30.8494 164.933 28.4123 174C27.2681 178.257 27.0039 186.7 28.7173 190.804C30.8312 195.866 37.1884 200.188 41 204C51.0434 214.043 61.7395 230.958 77 231z"/>
<path style="fill:#4c565f; stroke:none;" d="M77 131L77 231L78 231L78 162L77 131z"/>
<path style="fill:#d7e0e7; stroke:none;" d="M78 131L78 232L79 232L79 163L78 131z"/>
<path style="fill:#69737c; stroke:none;" d="M345 131L345 232L355 232L355 231L346 231L346 162L345 131z"/>
<path style="fill:#222f3f; stroke:none;" d="M346 131L346 231C358.277 230.991 363.73 223.27 372 215C383.972 203.028 399.252 192.131 394.647 173.196C392.389 163.914 378.536 154.536 372 148C363.805 139.805 358.195 131.009 346 131z"/>
<path style="fill:#79828b; stroke:none;" d="M137 139L137 140L286 140C273.421 135.299 253.444 139 240 139L137 139z"/>
<path style="fill:#fcfcfc; stroke:none;" d="M135.129 140.953C125.588 145.275 129.719 173.109 130.028 182C130.169 186.056 130.935 190.375 135.091 192.155C144.19 196.054 160.157 193 170 193L251 193C260.888 193 280.164 196.697 288.844 191.715C293.116 189.262 292.983 184.315 292.999 180C293.034 170.897 297.644 144.352 286.969 140.658C277.184 137.272 262.324 140 252 140L175 140C163.975 140 145.22 136.383 135.129 140.953z"/>
<path style="fill:#939aa2; stroke:none;" d="M55 144L56 145L55 144z"/>
<path style="fill:#677077; stroke:none;" d="M129 147L129 187L130 187C130 175.182 133.136 158.068 129 147z"/>
<path style="fill:#7c838b; stroke:none;" d="M293 147L293 188L294 188C294 175.909 297.231 158.321 293 147z"/>
<path style="fill:#60656b; stroke:none;" d="M174 151L174 152L181 152L174 151z"/>
<path style="fill:#afb5b5; stroke:none;" d="M240.667 151.333L241.333 151.667L240.667 151.333z"/>
<path style="fill:#646871; stroke:none;" d="M242 151L242 152L247 152L242 151z"/>
<path style="fill:#abb0b6; stroke:none;" d="M247 151L247 152L250 152L247 151z"/>
<path style="fill:#233040; stroke:none;" d="M172.001 152.845C154.085 159.86 165.901 188.318 183.999 180.911C202.148 173.484 190.588 145.567 172.001 152.845z"/>
<path style="fill:#233041; stroke:none;" d="M239.011 152.73C221.229 158.519 231.755 187.335 249.999 181.079C269.159 174.51 258.368 146.427 239.011 152.73z"/>
<path style="fill:#9ba2a8; stroke:none;" d="M250.667 152.333L251.333 152.667L250.667 152.333z"/>
<path style="fill:#757a7d; stroke:none;" d="M163.333 161.667L163.667 162.333L163.333 161.667z"/>
<path style="fill:#acb0af; stroke:none;" d="M162 163L162 169L163 169L162 163z"/>
<path style="fill:#646873; stroke:none;" d="M193 163L193 170L194 170L193 163z"/>
<path style="fill:#8c949f; stroke:none;" d="M229 163L229 170L230 170L229 163z"/>
<path style="fill:#8c9093; stroke:none;" d="M260 163L260 169L261 169L260 163z"/>
<path style="fill:#b9bcc1; stroke:none;" d="M163.333 171.667L163.667 172.333L163.333 171.667z"/>
<path style="fill:#a3aab2; stroke:none;" d="M395 172L395 191L396 191L395 172z"/>
<path style="fill:#707579; stroke:none;" d="M172.667 181.333L173.333 181.667L172.667 181.333z"/>
<path style="fill:#989da1; stroke:none;" d="M174 182L174 183L181 183L174 182z"/>
<path style="fill:#9ba3a5; stroke:none;" d="M242 182L242 183L246 183L242 182z"/>
<path style="fill:#647181; stroke:none;" d="M130.333 187.667L130.667 188.333L130.333 187.667z"/>
<path style="fill:#7c858c; stroke:none;" d="M136 193L136 194L286 194C273.421 189.299 253.444 193 240 193L136 193z"/>
<path style="fill:#8e929b; stroke:none;" d="M390 195L391 196L390 195z"/>
<path style="fill:#97a2a6; stroke:none;" d="M68 231L68 232L78 232L68 231z"/>
<path style="fill:#3c454c; stroke:none;" d="M168 244L168 245L253 245L226 244L168 244z"/>
<path style="fill:#d9e0e6; stroke:none;" d="M166 245L166 246L256 246L227 245L166 245z"/>
<path style="fill:#6b727a; stroke:none;" d="M256.667 245.333L257.333 245.667L256.667 245.333z"/>
<path style="fill:#fcfcfa; stroke:none;" d="M144 261L279 261C275.781 250.986 263.817 246.184 254 246.011C227.019 245.535 199.986 245.998 173 246C161.566 246.001 148.685 249.06 144 261z"/>
<path style="fill:#657479; stroke:none;" d="M260.667 246.333L261.333 246.667L260.667 246.333z"/>
<path style="fill:#8c959e; stroke:none;" d="M147 255L148 256L147 255z"/>
<path style="fill:#6c757e; stroke:none;" d="M143 260C147.992 264.945 164.18 262 171 262L250 262C257.15 262 274.792 265.159 280 260C258.716 264.801 232.815 261 211 261C189.493 261 163.985 264.734 143 260z"/>
<path style="fill:#cdd4da; stroke:none;" d="M132 308L132 309L291 309C277.662 304.015 256.263 308 242 308L132 308z"/>
</svg>
