<svg xmlns="http://www.w3.org/2000/svg" width="1280" height="720" viewBox="0 0 1280 720" role="img" aria-labelledby="title desc">
  <title id="title">Expectations for This Unit</title>
  <desc id="desc">A checklist board showing communication, mechanics, iteration, and justification.</desc>
  <defs>
    <linearGradient id="bg" x1="0" y1="0" x2="1" y2="1">
      <stop offset="0%" stop-color="#2b1b10"/>
      <stop offset="100%" stop-color="#5c3d25"/>
    </linearGradient>
  </defs>
  <rect width="1280" height="720" fill="url(#bg)"/>
  <text x="640" y="98" fill="#fff7ef" font-family="Verdana, sans-serif" font-size="44" text-anchor="middle">Expectations for This Unit</text>
  <rect x="250" y="160" width="780" height="460" rx="24" fill="#fff7ef"/>
  <rect x="320" y="230" width="620" height="62" rx="10" fill="#f4d9bd"/>
  <rect x="320" y="314" width="620" height="62" rx="10" fill="#f0cfae"/>
  <rect x="320" y="398" width="620" height="62" rx="10" fill="#ebc59c"/>
  <rect x="320" y="482" width="620" height="62" rx="10" fill="#e6ba8a"/>
  <path d="M350 263 l18 18 l34 -34" fill="none" stroke="#2b1b10" stroke-width="8" stroke-linecap="round" stroke-linejoin="round"/>
  <path d="M350 347 l18 18 l34 -34" fill="none" stroke="#2b1b10" stroke-width="8" stroke-linecap="round" stroke-linejoin="round"/>
  <path d="M350 431 l18 18 l34 -34" fill="none" stroke="#2b1b10" stroke-width="8" stroke-linecap="round" stroke-linejoin="round"/>
  <path d="M350 515 l18 18 l34 -34" fill="none" stroke="#2b1b10" stroke-width="8" stroke-linecap="round" stroke-linejoin="round"/>
  <text x="655" y="270" fill="#3b2415" font-family="Verdana, sans-serif" font-size="28" text-anchor="middle">Explain How Your Game Works</text>
  <text x="655" y="354" fill="#3b2415" font-family="Verdana, sans-serif" font-size="28" text-anchor="middle">Describe Mechanics Clearly</text>
  <text x="655" y="438" fill="#3b2415" font-family="Verdana, sans-serif" font-size="28" text-anchor="middle">Show Improvement Over Time</text>
  <text x="655" y="522" fill="#3b2415" font-family="Verdana, sans-serif" font-size="28" text-anchor="middle">Justify Design Decisions</text>
</svg>
